<?xml version="1.0" encoding="UTF-8"?><svg xmlns="http://www.w3.org/2000/svg" xmlns:xlink="http://www.w3.org/1999/xlink" width="366.75" zoomAndPan="magnify" viewBox="0 0 366.75 203.999996" height="203.999996" preserveAspectRatio="xMidYMid meet" version="1.0"><defs><clipPath id="clip-0"><path d="M 0 0.0703125 L 366.5 0.0703125 L 366.5 203.929688 L 0 203.929688 Z M 0 0.0703125 " clip-rule="nonzero"/></clipPath><clipPath id="clip-1"><path d="M 70.144531 54.894531 L 151.894531 54.894531 L 151.894531 136.644531 L 70.144531 136.644531 Z M 70.144531 54.894531 " clip-rule="nonzero"/></clipPath><clipPath id="clip-2"><path d="M 227 65 L 283.980469 65 L 283.980469 76 L 227 76 Z M 227 65 " clip-rule="nonzero"/></clipPath></defs><g clip-path="url(#clip-0)"><path fill="rgb(100%, 100%, 100%)" d="M 0 0.0703125 L 366.75 0.0703125 L 366.75 211.570312 L 0 211.570312 Z M 0 0.0703125 " fill-opacity="1" fill-rule="nonzero"/><path fill="rgb(100%, 100%, 100%)" d="M 0 0.0703125 L 366.75 0.0703125 L 366.75 204.070312 L 0 204.070312 Z M 0 0.0703125 " fill-opacity="1" fill-rule="nonzero"/><path fill="rgb(100%, 34.118652%, 34.118652%)" d="M 0 0.0703125 L 366.75 0.0703125 L 366.75 204.070312 L 0 204.070312 Z M 0 0.0703125 " fill-opacity="1" fill-rule="nonzero"/></g><g clip-path="url(#clip-1)"><path fill="rgb(100%, 100%, 100%)" d="M 121.238281 109.394531 L 121.238281 102.582031 C 122.769531 101.824219 127.152344 96.605469 127.613281 92.527344 C 128.820312 92.433594 130.710938 91.328125 131.269531 86.957031 C 131.570312 84.609375 130.378906 83.292969 129.65625 82.875 C 129.65625 82.875 131.457031 79.460938 131.457031 75.335938 C 131.457031 67.066406 128.210938 60.007812 121.238281 60.007812 C 121.238281 60.007812 118.816406 54.898438 111.019531 54.898438 C 96.566406 54.898438 90.582031 64.167969 90.582031 75.335938 C 90.582031 79.097656 92.378906 82.875 92.378906 82.875 C 91.65625 83.292969 90.464844 84.613281 90.765625 86.957031 C 91.324219 91.328125 93.214844 92.433594 94.421875 92.527344 C 94.882812 96.605469 99.265625 101.824219 100.800781 102.582031 L 100.800781 109.394531 C 97.394531 119.613281 70.144531 112.800781 70.144531 136.644531 L 151.894531 136.644531 C 151.894531 112.800781 124.644531 119.613281 121.238281 109.394531 Z M 121.238281 109.394531 " fill-opacity="1" fill-rule="nonzero"/></g><path fill="rgb(100%, 100%, 100%)" d="M 244.636719 56.429688 L 266.832031 56.429688 L 266.832031 61.683594 L 244.636719 61.683594 Z M 244.636719 56.429688 " fill-opacity="1" fill-rule="nonzero"/><path fill="rgb(100%, 100%, 100%)" d="M 231.476562 129.761719 C 231.476562 130.144531 231.515625 130.523438 231.59375 130.902344 C 231.667969 131.277344 231.78125 131.644531 231.925781 131.996094 C 232.074219 132.351562 232.253906 132.6875 232.46875 133.007812 C 232.679688 133.324219 232.921875 133.621094 233.191406 133.890625 C 233.464844 134.164062 233.757812 134.40625 234.074219 134.621094 C 234.394531 134.832031 234.726562 135.011719 235.082031 135.160156 C 235.433594 135.308594 235.796875 135.421875 236.171875 135.496094 C 236.546875 135.570312 236.925781 135.609375 237.308594 135.613281 L 274.144531 135.613281 C 274.527344 135.609375 274.90625 135.574219 275.277344 135.496094 C 275.652344 135.421875 276.015625 135.308594 276.367188 135.160156 C 276.71875 135.011719 277.050781 134.832031 277.367188 134.617188 C 277.683594 134.40625 277.976562 134.160156 278.246094 133.890625 C 278.515625 133.617188 278.753906 133.324219 278.964844 133.003906 C 279.175781 132.683594 279.351562 132.347656 279.496094 131.992188 C 279.640625 131.640625 279.75 131.273438 279.824219 130.898438 C 279.894531 130.523438 279.929688 130.144531 279.929688 129.761719 L 279.929688 78.761719 L 231.476562 78.761719 Z M 266.832031 89.488281 C 266.835938 89.257812 266.882812 89.039062 266.972656 88.824219 C 267.058594 88.613281 267.183594 88.429688 267.347656 88.265625 C 267.507812 88.101562 267.695312 87.976562 267.902344 87.886719 C 268.113281 87.796875 268.332031 87.75 268.5625 87.746094 C 268.796875 87.742188 269.023438 87.78125 269.246094 87.867188 C 269.464844 87.953125 269.660156 88.078125 269.828125 88.242188 C 270 88.402344 270.132812 88.59375 270.230469 88.808594 C 270.324219 89.023438 270.378906 89.25 270.382812 89.488281 L 270.382812 124.785156 C 270.386719 125.027344 270.339844 125.261719 270.25 125.488281 C 270.15625 125.710938 270.027344 125.910156 269.855469 126.082031 C 269.683594 126.253906 269.484375 126.386719 269.261719 126.476562 C 269.039062 126.570312 268.804688 126.617188 268.5625 126.613281 C 268.328125 126.605469 268.101562 126.554688 267.886719 126.460938 C 267.671875 126.363281 267.484375 126.230469 267.320312 126.058594 C 267.160156 125.886719 267.035156 125.691406 266.949219 125.46875 C 266.867188 125.25 266.828125 125.019531 266.832031 124.785156 Z M 253.867188 89.488281 C 253.882812 89.253906 253.9375 89.035156 254.039062 88.824219 C 254.136719 88.613281 254.273438 88.429688 254.441406 88.269531 C 254.609375 88.109375 254.800781 87.988281 255.019531 87.902344 C 255.234375 87.816406 255.457031 87.773438 255.6875 87.773438 C 255.921875 87.773438 256.144531 87.816406 256.359375 87.902344 C 256.574219 87.988281 256.769531 88.109375 256.9375 88.269531 C 257.105469 88.429688 257.238281 88.613281 257.339844 88.824219 C 257.4375 89.035156 257.496094 89.253906 257.511719 89.488281 L 257.511719 124.785156 C 257.511719 125.027344 257.464844 125.261719 257.371094 125.484375 C 257.28125 125.707031 257.148438 125.90625 256.976562 126.078125 C 256.804688 126.25 256.609375 126.382812 256.386719 126.476562 C 256.164062 126.566406 255.929688 126.613281 255.6875 126.613281 C 255.445312 126.613281 255.214844 126.566406 254.992188 126.476562 C 254.769531 126.382812 254.570312 126.25 254.398438 126.078125 C 254.230469 125.90625 254.097656 125.707031 254.003906 125.484375 C 253.914062 125.261719 253.867188 125.027344 253.867188 124.785156 Z M 240.992188 89.488281 C 241.007812 89.253906 241.066406 89.035156 241.164062 88.824219 C 241.265625 88.613281 241.398438 88.429688 241.566406 88.269531 C 241.738281 88.109375 241.929688 87.988281 242.144531 87.902344 C 242.359375 87.816406 242.582031 87.773438 242.816406 87.773438 C 243.046875 87.773438 243.269531 87.816406 243.488281 87.902344 C 243.703125 87.988281 243.894531 88.109375 244.0625 88.269531 C 244.234375 88.429688 244.367188 88.613281 244.464844 88.824219 C 244.566406 89.035156 244.621094 89.253906 244.636719 89.488281 L 244.636719 124.785156 C 244.636719 125.027344 244.59375 125.261719 244.5 125.484375 C 244.40625 125.710938 244.277344 125.90625 244.105469 126.078125 C 243.933594 126.25 243.738281 126.382812 243.511719 126.476562 C 243.289062 126.570312 243.058594 126.617188 242.816406 126.617188 C 242.574219 126.617188 242.339844 126.570312 242.117188 126.476562 C 241.894531 126.382812 241.695312 126.25 241.527344 126.078125 C 241.355469 125.90625 241.222656 125.710938 241.132812 125.484375 C 241.039062 125.261719 240.992188 125.027344 240.992188 124.785156 Z M 240.992188 89.488281 " fill-opacity="1" fill-rule="nonzero"/><g clip-path="url(#clip-2)"><path fill="rgb(100%, 100%, 100%)" d="M 268.5625 65.34375 L 227.167969 65.34375 L 227.167969 75.105469 L 284.207031 75.105469 L 284.207031 65.34375 Z M 268.5625 65.34375 " fill-opacity="1" fill-rule="nonzero"/></g></svg>